# xmcd
# 
# Track frame offsets:
#     150
#     14072
#     34030
#     56415
#     69972
#     82187
#     98115
#     119625
#     140222
#     154562
#     169680
#     186972
#     205150
# 
# Disc length: 3016
# 
# Revision: 9
# Processed by: cddbd v1.5.2PL0 Copyright (c) Steve Scherf et al.
# Submitted via: fre:ac v1.0.31
# 
DISCID=b70bc60d
DTITLE=Aaron Neville - Warm Your Heart
DYEAR=1991
DGENRE=Blues
TTITLE0=Louisiana 1927
TTITLE1=Everybody Plays the Fool
TTITLE2=It Feels Like Rain
TTITLE3=Somewhere, Somebody
TTITLE4=Don't Go Please Stay
TTITLE5=With You in Mind
TTITLE6=That's the Way She Loves
TTITLE7=Angola Bound
TTITLE8=Close Your Eyes
TTITLE9=La Vie Dansante
TTITLE10=Warm Your Heart
TTITLE11=I Bid You Goodnight
TTITLE12=Ave Maria
EXTD=
EXTT0=
EXTT1=
EXTT2=
EXTT3=
EXTT4=
EXTT5=
EXTT6=
EXTT7=
EXTT8=
EXTT9=
EXTT10=
EXTT11=
EXTT12=
PLAYORDER=
